PathFileType	4	(X/Y/Z)	C:\Users\°ÂÌØÂü\Desktop\20210112\bx_y_10_1802-Unnamed.trc
DataRate	CameraRate	NumFrames	NumMarkers	Units	OrigDataRate	OrigDataStartFrame	OrigNumFrames
50.00	50.00	       4	0	mm	50.00	164	       652
Frame#	Time	
		

164	3.260	-1038.80188	130.60555	725.53760	-808.78925	-64.91178	653.73425	-526.25305	195.44582	531.73987				-552.80896	48.60885	542.46570	-623.92096	298.78357	455.26434	-563.98499	304.37912	508.09668	-720.48688	250.30177	686.48328				-539.57660	-12.70774	467.45889	-664.82458	-64.55290	165.86539	-697.59546	151.32167	209.19315	-624.71576	-75.72196	163.94987	-882.53503	296.08496	144.58298	-581.45917	-61.41857	514.62622	-602.35974	19.23851	165.53381	-559.61823	-42.39939	163.13066	-593.24976	221.25218	172.18362	-667.00574	296.38458	161.68373	-630.41315	304.93057	162.10342	-559.59229	261.78931	164.01588	-528.46472	304.64560	146.45885	-262.67575	128.00195	1100.91321	-444.44540	295.10568	876.36511	-789.25684	318.91956	666.21320	-698.15179	324.91708	578.88342	-790.90332	166.85828	189.58365	-759.89807	222.32570	204.72739	-674.07172	55.15812	152.34633	-756.01886	-0.96919	210.06450	-789.43152	63.70699	179.13336	-436.41052	-28.79290	884.66962	-649.82324	-57.36736	457.24200	-876.10815	-78.79579	141.22952	-517.79559	-72.17948	142.44081	-597.24426	-63.47284	551.88068				-674.20941	171.46252	153.29225	-702.48993	81.32977	208.76260	-513.62744	253.14523	470.56973				-736.70325	-5.55252	694.66083	
165	3.280	-1038.90234	130.37808	725.25873	-808.52014	-65.36387	653.87622	-526.44012	195.57553	531.86127				-552.92828	48.18764	542.30609	-623.82788	298.54147	455.16248	-564.00647	304.12683	508.02209	-720.63214	250.62619	686.90161				-539.55017	-13.02914	467.36862	-664.96942	-64.58912	165.72179	-697.65399	151.36778	209.15527	-624.61084	-75.91612	164.09990	-882.59625	296.22037	144.63243	-581.55670	-61.86494	514.44397	-602.40454	19.20209	165.55272	-559.63245	-42.29950	163.18011	-593.12982	221.26569	172.08995	-667.07434	296.28131	161.49228	-630.46045	304.80264	162.10211	-559.64722	261.46899	163.69926	-528.27191	304.25220	146.56265	-263.62741	128.50229	1101.53320	-444.39905	295.21091	875.53772	-789.73737	318.89792	666.31134	-698.34686	324.69131	578.70844	-790.96674	166.82793	189.80772	-760.06226	222.41875	204.85127	-674.05402	54.80727	152.20406	-756.00928	-1.14653	209.97746	-789.60608	63.58238	179.23979	-436.02417	-28.17112	884.06689	-649.67944	-57.80217	457.19644	-875.97748	-78.88188	141.21204	-517.57953	-72.04622	142.80177	-597.35297	-63.85882	551.53430				-674.22119	171.60350	153.25140	-702.56189	81.20410	208.84114	-513.88208	253.21117	470.64984				-736.64923	-5.90656	694.57208	
166	3.300	-1038.95215	129.98900	725.00098	-808.76343	-65.97954	653.67871	-526.48749	195.49651	532.01666	-594.30280	309.05090	539.78119				-624.15570	299.05853	455.50943	-563.98499	304.37912	508.09668	-721.02673	250.55252	686.55774				-539.56482	-13.53157	467.20596	-664.94208	-64.76499	165.81995	-697.67004	151.28159	209.07896	-624.73090	-75.97967	163.75784	-882.63641	296.19785	144.62160	-581.60577	-62.70620	514.59448	-602.40454	19.20209	165.55272	-559.72693	-42.23117	162.88573	-592.98572	220.89818	171.98544	-666.89001	296.59650	161.93994	-630.40723	304.87875	162.14377	-559.66748	261.29968	163.51874	-528.37158	304.40012	146.31305	-264.87030	128.85988	1101.70276	-444.61807	295.48889	874.35315	-790.21631	318.85422	665.90454	-698.84344	325.04721	578.90167	-791.07562	167.00148	189.74942	-760.16113	222.57333	204.75938	-674.08838	54.94794	152.65326	-755.95410	-1.36815	210.05943	-789.57318	63.23029	179.07465				-649.66095	-57.96231	457.08969	-876.45227	-78.79912	141.72606	-517.83972	-71.84241	142.47070	-597.61597	-64.02475	551.09064				-674.29486	171.47382	153.12999	-702.47974	80.80116	208.64636	-513.71283	252.85356	470.85590				-736.78735	-6.21686	694.38019	
167	3.320	-1039.26648	129.73978	724.51892	-808.84540	-65.86669	653.56897	-526.76086	195.59132	532.39069	-595.11060	308.33679	538.00690	-551.81592	47.74482	543.56915	-624.08319	299.17053	455.50885	-564.00647	304.12683	508.02209	-721.58221	249.95686	686.03540	-434.87875	-27.43916	881.62549	-539.80823	-13.94545	467.20947	-664.73853	-64.66266	165.85654	-698.04901	151.26677	209.43823	-624.72058	-76.02469	164.12906	-882.51361	295.87210	144.41501	-581.71069	-63.06437	514.82190	-602.43402	19.15319	165.47289	-559.69324	-42.03185	162.87219	-592.89020	221.04475	172.11586	-667.02344	296.56265	161.92329	-630.27588	304.81091	162.02728	-559.50201	261.24350	163.53748	-528.39655	304.27173	146.29654	-265.96051	128.92294	1102.44165	-444.55762	295.62903	874.15430	-790.65900	318.57208	665.62244	-699.10529	325.27200	578.77136	-791.22644	167.37794	190.03764	-760.23193	222.73518	204.97017	-674.16083	55.20523	153.02924	-755.99121	-1.46250	210.00755	-789.56598	63.28424	179.51843				-649.63055	-58.24934	456.97635	-876.03320	-78.59757	141.50241	-517.84418	-72.03018	142.25479	-597.62939	-64.80436	551.05884				-674.35065	171.82417	153.13910	-702.67542	80.90508	209.47232	-513.94629	252.94182	471.09235				-737.27399	-6.94307	694.33484	
